# xmcd
#
# Track frame offsets:
#	150
#	15586
#	29500
#	50014
#	68242
#	97808
#	113793
#	134076
#	150047
#	163931
#	180995
#	198206
#	215787
#	231873
#	249274
#	263864
#	281925
#	297445
#	316355
#	332005
#
# Disc length: 4662 seconds
#
# Revision: 0
# Processed by: cddbd v1.5PL3 Copyright (c) Steve Scherf et al.
# Submitted via: dBpowerAMP V4.0
#
DISCID=25123414
DTITLE=mix - Country Boys
DYEAR=1900
DGENRE=
TTITLE0=Brooks and Dunn- Aint Nothing 
TTITLE1=Brooks and Dunn- My Heart Is Lost To You
TTITLE2=Brooks and Dunn- Only In America
TTITLE3=Brooks and Dunn- Red Dirt Road
TTITLE4=Brooks and Dunn- Boot Scootin Boogie
TTITLE5=Brooks and Dunn- Maria
TTITLE6=Toby Kieth- Courtsy Of the  Red White and Blue(Angery American)
TTITLE7=Toby Kieth- How Do You Like Me Now
TTITLE8=Toby Kieth-  I Wanna Talk Aout Me
TTITLE9=Toby Kieth- You Shouldn't Kiss Me Like That
TTITLE10=Chris Cagle- I Breath In, I Breath Out
TTITLE11=Chris Cagle- Larado
TTITLE12=Chris Cagle- Country By The Grace of God
TTITLE13=Chris Cagle- What A Beautiful Day
TTITLE14=Kenny Chesney- How Forever Feels
TTITLE15=Kenny Chesney- I Lost It
TTITLE16=Kenny Chesney- Just Don"t Happen Twice
TTITLE17=Kenny Chesney- She Thinks My Tractor's Sexy
TTITLE18=Kenny Chesney- She's Got IT All
TTITLE19=Kenny Chesney- Young
EXTD=
EXTT0=
EXTT1=
EXTT2=
EXTT3=
EXTT4=
EXTT5=
EXTT6=
EXTT7=
EXTT8=
EXTT9=
EXTT10=
EXTT11=
EXTT12=
EXTT13=
EXTT14=
EXTT15=
EXTT16=
EXTT17=
EXTT18=
EXTT19=
PLAYORDER=
